# xmcd
#
# Track frame offsets:
#	150
#	36034
#	62345
#	102083
#	128457
#	157914
#	217463
#	246205
#
# Disc length: 3456 seconds
#
# Revision: 0
# Processed by: cddbd v1.5.2PL0 Copyright (c) Steve Scherf et al.
# Submitted via: audiograbber 1.83.01
#
DISCID=630d7e08
DTITLE=The Notwist - Superheroes, Ghostvillains and Stuff [CD 2)
DYEAR=2016
DGENRE=Alternative Rock
TTITLE0=Trashing Days [live]
TTITLE1=Gloomy Planets [live]
TTITLE2=Run Run Run [live]
TTITLE3=Gravity [live]
TTITLE4=Neon Golden [live]
TTITLE5=Pilot [live]
TTITLE6=Consequence [live]
TTITLE7=Gone Gone Gone [live]
EXTD=
EXTT0=
EXTT1=
EXTT2=
EXTT3=
EXTT4=
EXTT5=
EXTT6=
EXTT7=
PLAYORDER=
